<mxfile host="65bd71144e">
    <diagram name="Page-1" id="SBACAg1R_DxyBah2Urnb">
        <mxGraphModel dx="1679" dy="908" grid="1" gridSize="10" guides="1" tooltips="1" connect="1" arrows="1" fold="1" page="1" pageScale="1" pageWidth="827" pageHeight="1169" math="0" shadow="0">
            <root>
                <mxCell id="0"/>
                <mxCell id="1" parent="0"/>
                <mxCell id="20" value="" style="rounded=0;whiteSpace=wrap;html=1;" vertex="1" parent="1">
                    <mxGeometry x="174.68" y="630" width="530" height="500" as="geometry"/>
                </mxCell>
                <mxCell id="21" value="" style="rounded=0;whiteSpace=wrap;html=1;strokeColor=#F01313;" vertex="1" parent="1">
                    <mxGeometry x="197.18" y="410" width="485" height="430" as="geometry"/>
                </mxCell>
                <mxCell id="17" style="edgeStyle=none;html=1;exitX=0.5;exitY=0;exitDx=0;exitDy=0;" parent="1" source="6" edge="1">
                    <mxGeometry relative="1" as="geometry">
                        <mxPoint x="436" y="670" as="targetPoint"/>
                    </mxGeometry>
                </mxCell>
                <mxCell id="19" style="edgeStyle=none;html=1;entryX=0.5;entryY=1;entryDx=0;entryDy=0;" parent="1" source="6" target="29EiWO2GOaxbvxtyZf-W-2" edge="1">
                    <mxGeometry relative="1" as="geometry"/>
                </mxCell>
                <mxCell id="6" value="" style="rounded=0;whiteSpace=wrap;html=1;" parent="1" vertex="1">
                    <mxGeometry x="320" y="660" width="240" height="140" as="geometry"/>
                </mxCell>
                <mxCell id="29EiWO2GOaxbvxtyZf-W-2" value="" style="rounded=0;whiteSpace=wrap;html=1;" parent="1" vertex="1">
                    <mxGeometry x="330.32" y="450" width="219.35" height="165" as="geometry"/>
                </mxCell>
                <mxCell id="10" style="edgeStyle=none;html=1;entryX=0.5;entryY=1;entryDx=0;entryDy=0;" parent="1" target="11" edge="1">
                    <mxGeometry relative="1" as="geometry">
                        <mxPoint x="430.6500000000001" y="240" as="targetPoint"/>
                        <mxPoint x="440" y="450" as="sourcePoint"/>
                    </mxGeometry>
                </mxCell>
                <mxCell id="29EiWO2GOaxbvxtyZf-W-10" value="Reverse Proxy" style="text;html=1;align=center;verticalAlign=middle;whiteSpace=wrap;rounded=0;" parent="1" vertex="1">
                    <mxGeometry x="394.68" y="470" width="90" height="30" as="geometry"/>
                </mxCell>
                <mxCell id="29EiWO2GOaxbvxtyZf-W-11" value="" style="shape=image;verticalLabelPosition=bottom;labelBackgroundColor=default;verticalAlign=top;aspect=fixed;imageAspect=0;image=https://static-00.iconduck.com/assets.00/file-type-nginx-icon-1793x2048-yt5u3fm7.png;" parent="1" vertex="1">
                    <mxGeometry x="409.02" y="517.5" width="61.31" height="70" as="geometry"/>
                </mxCell>
                <mxCell id="29EiWO2GOaxbvxtyZf-W-13" value="" style="shape=image;verticalLabelPosition=bottom;labelBackgroundColor=default;verticalAlign=top;aspect=fixed;imageAspect=0;image=https://static-00.iconduck.com/assets.00/node-js-icon-454x512-nztofx17.png;" parent="1" vertex="1">
                    <mxGeometry x="413.40000000000003" y="725" width="53.2" height="60" as="geometry"/>
                </mxCell>
                <mxCell id="3" style="edgeStyle=none;html=1;entryX=0.5;entryY=1;entryDx=0;entryDy=0;" parent="1" source="29EiWO2GOaxbvxtyZf-W-16" target="6" edge="1">
                    <mxGeometry relative="1" as="geometry">
                        <mxPoint x="273.93000000000006" y="772.4299999999998" as="targetPoint"/>
                    </mxGeometry>
                </mxCell>
                <mxCell id="29EiWO2GOaxbvxtyZf-W-16" value="" style="whiteSpace=wrap;html=1;aspect=fixed;" parent="1" vertex="1">
                    <mxGeometry x="200" y="880" width="200" height="200" as="geometry"/>
                </mxCell>
                <mxCell id="29EiWO2GOaxbvxtyZf-W-17" value="Server&lt;br&gt;(Express)" style="text;html=1;align=center;verticalAlign=middle;whiteSpace=wrap;rounded=0;" parent="1" vertex="1">
                    <mxGeometry x="395" y="680" width="90" height="30" as="geometry"/>
                </mxCell>
                <mxCell id="29EiWO2GOaxbvxtyZf-W-18" value="Database&lt;br&gt;(MySQL)" style="text;html=1;align=center;verticalAlign=middle;whiteSpace=wrap;rounded=0;" parent="1" vertex="1">
                    <mxGeometry x="255" y="910" width="90" height="30" as="geometry"/>
                </mxCell>
                <mxCell id="29EiWO2GOaxbvxtyZf-W-19" value="" style="shape=image;verticalLabelPosition=bottom;labelBackgroundColor=default;verticalAlign=top;aspect=fixed;imageAspect=0;image=https://www.svgrepo.com/show/303251/mysql-logo.svg;" parent="1" vertex="1">
                    <mxGeometry x="239.99999999999997" y="930" width="120" height="120" as="geometry"/>
                </mxCell>
                <mxCell id="8" style="edgeStyle=none;html=1;" parent="1" source="5" edge="1">
                    <mxGeometry relative="1" as="geometry">
                        <mxPoint x="440" y="800" as="targetPoint"/>
                    </mxGeometry>
                </mxCell>
                <mxCell id="5" value="" style="whiteSpace=wrap;html=1;aspect=fixed;" parent="1" vertex="1">
                    <mxGeometry x="480" y="880" width="200" height="200" as="geometry"/>
                </mxCell>
                <mxCell id="11" value="Client:&lt;br&gt;localhost:3005 /&lt;br&gt;examproject.xyz" style="rounded=0;whiteSpace=wrap;html=1;" parent="1" vertex="1">
                    <mxGeometry x="340" y="280" width="199.35" height="80" as="geometry"/>
                </mxCell>
                <mxCell id="13" value="" style="endArrow=none;html=1;" parent="1" edge="1">
                    <mxGeometry width="50" height="50" relative="1" as="geometry">
                        <mxPoint x="378" y="390" as="sourcePoint"/>
                        <mxPoint x="498" y="390" as="targetPoint"/>
                    </mxGeometry>
                </mxCell>
                <mxCell id="15" value="" style="shape=image;verticalLabelPosition=bottom;labelBackgroundColor=default;verticalAlign=top;aspect=fixed;imageAspect=0;image=https://cdn.freebiesupply.com/logos/large/2x/linode-1-logo-png-transparent.png;" parent="1" vertex="1">
                    <mxGeometry x="553.25" y="985.9" width="53.5" height="64.1" as="geometry"/>
                </mxCell>
                <mxCell id="16" value="Object Storage (Linode)" style="text;html=1;strokeColor=none;fillColor=none;align=center;verticalAlign=middle;whiteSpace=wrap;rounded=0;" parent="1" vertex="1">
                    <mxGeometry x="525.1700000000001" y="930" width="109.67" height="30" as="geometry"/>
                </mxCell>
                <mxCell id="23" value="" style="endArrow=none;html=1;entryX=0;entryY=0;entryDx=0;entryDy=0;" edge="1" parent="1" target="20">
                    <mxGeometry width="50" height="50" relative="1" as="geometry">
                        <mxPoint x="705" y="630" as="sourcePoint"/>
                        <mxPoint x="755" y="580" as="targetPoint"/>
                    </mxGeometry>
                </mxCell>
                <mxCell id="25" style="edgeStyle=none;html=1;exitX=0;exitY=0.5;exitDx=0;exitDy=0;" edge="1" parent="1" source="24">
                    <mxGeometry relative="1" as="geometry">
                        <mxPoint x="710" y="880.1111111111111" as="targetPoint"/>
                    </mxGeometry>
                </mxCell>
                <mxCell id="24" value="Internal&amp;nbsp;&lt;br&gt;Docker&amp;nbsp;&lt;br&gt;Network" style="text;html=1;strokeColor=none;fillColor=none;align=center;verticalAlign=middle;whiteSpace=wrap;rounded=0;" vertex="1" parent="1">
                    <mxGeometry x="740" y="865" width="60" height="30" as="geometry"/>
                </mxCell>
                <mxCell id="27" style="edgeStyle=none;html=1;strokeColor=#CC0000;" edge="1" parent="1" source="26">
                    <mxGeometry relative="1" as="geometry">
                        <mxPoint x="690" y="533" as="targetPoint"/>
                    </mxGeometry>
                </mxCell>
                <mxCell id="26" value="&lt;font color=&quot;#cc0000&quot;&gt;External&amp;nbsp;&lt;br&gt;Docker&amp;nbsp;&lt;br&gt;Network&lt;/font&gt;" style="text;html=1;strokeColor=none;fillColor=none;align=center;verticalAlign=middle;whiteSpace=wrap;rounded=0;" vertex="1" parent="1">
                    <mxGeometry x="740" y="517.5" width="60" height="30" as="geometry"/>
                </mxCell>
            </root>
        </mxGraphModel>
    </diagram>
</mxfile>